<svg width="268" height="75" viewBox="0 0 268 75" fill="none" xmlns="http://www.w3.org/2000/svg">
	<symbol id="logo-symbol-wordmark">
		<path d="M44.6249 15.3095C45.0274 14.1806 45.4299 13.0518 45.8324 11.9049H45.8223L66.11 10.1157L51.9783 41.4622L53.3733 57.2416L34.1369 58.9399L32.7419 43.1605L13.5459 14.7454L33.7022 12.9663C34.243 13.9064 34.7712 14.8617 35.2993 15.8169C35.8275 16.7722 36.3557 17.7274 36.8965 18.6675C37.5586 19.8603 38.2384 21.0329 38.9182 22.2055C39.598 23.3781 40.2778 24.5507 40.9399 25.7435L43.6186 18.1419C43.954 17.1908 44.2895 16.2501 44.6249 15.3095Z" fill="url(#paint0_linear_221_11528)"/>
<path d="M230.059 37.5476L230.049 37.5498L230.059 37.5599L230.059 37.5476Z" fill="url(#paint1_linear_221_11528)"/>
<path d="M237.59 37.6609C235.016 37.0553 232.442 37.0343 230.059 37.5476L229.615 10.651L256.948 17.0295L244.393 40.8957C242.483 39.3794 240.158 38.2573 237.59 37.6609Z" fill="url(#paint2_linear_221_11528)"/>
<path d="M242.533 53.9265C241.502 58.3338 237.357 60.5274 232.516 59.3952V59.3851C227.674 58.2529 224.934 54.4521 225.955 50.0549C226.986 45.6577 231.121 43.4642 235.973 44.5963C240.815 45.7285 243.554 49.5293 242.533 53.9265Z" fill="url(#paint3_linear_221_11528)"/>
<path fill-rule="evenodd" clip-rule="evenodd" d="M207.355 20.4668C195.791 18.5058 187.634 23.4994 185.915 33.6382C188.604 31.101 193.294 30.1104 198.268 30.9494C201.492 31.4952 203.554 32.7083 204.232 34.5581L198.702 34.2144C189.756 33.6888 184.176 36.8022 183.115 43.0695C182.883 44.424 182.923 45.7179 183.176 46.9208L175.695 47.9216L183.802 26.0164L153.052 30.1306L156.105 22.7817L137.799 21.7405L136.121 27.0273C135.767 28.0888 135.428 29.1528 135.09 30.2168C134.751 31.2806 134.412 32.3444 134.059 33.4057L130.541 21.3261L118.118 20.6185L113.255 32.2129L111.982 25.7738C111.805 24.8438 111.61 23.9138 111.416 22.9839C111.221 22.0539 111.026 21.1239 110.85 20.1939L92.5431 19.1527L96.354 32.405C91.9669 27.6136 84.9516 26.2085 78.0577 26.9868C67.6459 28.1594 58.053 34.2549 59.5086 47.2039C60.9743 60.1529 71.6792 63.9537 82.091 62.7811C91.1178 61.7601 99.5281 57.0496 100.66 47.3858L102.51 53.8351L118.269 54.7347L122.97 44.697L126.508 55.1997L142.267 56.0994L148.787 40.4008L149.292 44.1612L159.805 42.7561L150.92 64.7624L187.998 59.8092L187.027 52.5311C188.331 53.4105 189.898 54.0473 191.697 54.3506C195.832 55.0481 198.601 54.391 201.23 52.1773L200.775 54.8964L218.859 57.9694L222.053 39.1777C223.731 29.2916 218.262 22.3268 207.355 20.4668ZM80.8274 51.4697C79.0079 51.6718 77.9869 50.2061 77.4208 45.2024C76.8547 40.1886 77.5219 38.5308 79.3515 38.3286C81.1711 38.1264 82.192 39.5922 82.7581 44.5959C83.3242 49.6097 82.657 51.2675 80.8274 51.4697ZM202.281 46.0515C201.684 46.4154 200.866 46.5367 200.027 46.3952C198.217 46.0919 197.287 44.9294 197.56 43.3222C197.823 41.7756 199.279 41.0175 201.775 41.1792L203.089 41.2702L202.281 46.0515Z" fill="url(#paint4_linear_221_11528)"/>
<path d="M79.3421 38.3287C77.5226 38.5309 76.8453 40.1887 77.4114 45.2025C77.9774 50.2163 78.9984 51.6821 80.8179 51.4698C82.6375 51.2676 83.3147 49.6098 82.7486 44.596C82.1826 39.5822 81.1616 38.1164 79.3421 38.3287Z" fill="black"/>
<path d="M197.561 43.3227C197.288 44.9401 198.218 46.0925 200.027 46.3957C200.866 46.5372 201.685 46.4159 202.281 46.052L203.09 41.2707L201.776 41.1797C199.279 41.018 197.824 41.766 197.561 43.3227Z" fill="black"/>
<path fill-rule="evenodd" clip-rule="evenodd" d="M222.377 1.6958L267.461 12.2188L248.973 47.3863C249.872 49.9033 250.084 52.6933 249.417 55.5439C248.467 59.658 245.94 63.004 242.321 64.965C240.117 66.1578 237.59 66.7643 234.962 66.7643C233.628 66.7643 232.273 66.6026 230.909 66.2892C228.705 65.7737 226.744 64.8943 225.056 63.7419L224.652 66.1275L195.398 61.6797L195.954 65.8849L139.811 73.3955L143.895 63.287L101.985 60.9014C97.6081 65.7231 90.9972 68.9174 82.8902 69.8272C75.6929 70.6359 69.1224 69.4633 63.8862 66.4206C62.7035 65.7333 61.44 64.8437 60.1966 63.7419L27.708 66.6127L25.8581 45.6072L0.960938 8.75155L37.5637 5.52693L39.4338 8.75155L40.6569 5.254L77.5327 1.99906L68.4856 22.0645C71.1745 21.0435 74.116 20.3258 77.2699 19.972C80.0901 19.6485 82.8194 19.6485 85.4072 19.9417L82.9913 11.5314L166.477 16.2723L164.314 21.4782L186.452 18.5164C187.321 17.7683 188.251 17.0911 189.242 16.4846C193.032 14.1596 197.571 12.9769 202.595 12.9769C204.515 12.9769 206.497 13.1488 208.539 13.4924C214.381 14.4831 219.163 16.7272 222.68 19.9417L222.377 1.6958ZM32.742 43.1609L34.137 58.9403H34.1471L53.3835 57.2421L51.9886 41.4627L66.1202 10.1162L45.8325 11.9054C45.4971 12.8565 45.1617 13.7972 44.8262 14.7378C44.4237 15.8667 44.0212 16.9955 43.6187 18.1424L40.94 25.744C40.2779 24.5512 39.5981 23.3786 38.9183 22.206C38.2385 21.0334 37.5587 19.8608 36.8966 18.668C36.3558 17.7279 35.8276 16.7727 35.2994 15.8174C34.7713 14.8622 34.2431 13.9069 33.7023 12.9668L13.546 14.7459L32.742 43.1609ZM218.859 57.9598L222.054 39.1681V39.1782C223.732 29.2921 218.273 22.3172 207.356 20.4673C195.792 18.5063 187.634 23.4999 185.916 33.6387C188.605 31.1015 193.295 30.1108 198.268 30.9499C201.493 31.5058 203.545 32.7188 204.232 34.5586L198.703 34.2149C189.757 33.6994 184.177 36.8027 183.116 43.07C182.883 44.4144 182.914 45.7083 183.176 46.9112L175.696 47.9119L183.803 26.0068L153.053 30.121L156.106 22.7721L137.799 21.7309L136.121 27.0176C135.768 28.079 135.429 29.1429 135.09 30.2068C134.752 31.2708 134.413 32.3347 134.059 33.3961L130.542 21.3164L118.118 20.6088L113.256 32.2033L111.982 25.7642C111.805 24.8342 111.611 23.9042 111.416 22.9742C111.222 22.0442 111.027 21.1143 110.85 20.1843L92.5438 19.1431L96.3547 32.3954C91.9676 27.6039 84.9523 26.1988 78.0583 26.9772C67.6466 28.1498 58.0536 34.2452 59.5093 47.1942C60.9649 60.1432 71.6799 63.944 82.0916 62.7715C91.1185 61.7606 99.5287 57.05 100.661 47.3762L102.511 53.8254L118.27 54.7251L122.97 44.6873L126.508 55.1901L142.267 56.0897L148.787 40.3912L149.293 44.1516L159.806 42.7465L150.92 64.7527L187.998 59.7996L187.028 52.5214C188.332 53.4009 189.899 54.0377 191.698 54.341C195.832 55.0384 198.592 54.3814 201.23 52.1676L200.775 54.8868L218.859 57.9598ZM232.516 59.3952C237.368 60.5173 241.512 58.3237 242.533 53.9265V53.9366C243.564 49.5394 240.815 45.7386 235.973 44.6065C231.121 43.4743 226.976 45.6679 225.956 50.0651C224.924 54.4623 227.674 58.2631 232.516 59.3952ZM237.59 37.6518C240.158 38.2482 242.483 39.3601 244.393 40.8865L244.383 40.8764L256.938 17.0102L229.605 10.6317L230.049 37.5406C232.445 37.0251 235.023 37.0554 237.59 37.6518Z" fill="black"/>

<defs>
<linearGradient id="paint0_linear_221_11528" x1="10.3815" y1="34.5278" x2="251.911" y2="34.5278" gradientUnits="userSpaceOnUse">
<stop offset="0.06" stop-color="#FFF500"/>
<stop offset="0.228896" stop-color="#FFB443"/>
<stop offset="0.402597" stop-color="#FF5E5E"/>
<stop offset="0.595779" stop-color="#DD7DFF"/>
<stop offset="0.820513" stop-color="#39DBFF"/>
<stop offset="0.967532" stop-color="#00FF75"/>
</linearGradient>
<linearGradient id="paint1_linear_221_11528" x1="10.3815" y1="34.5278" x2="251.911" y2="34.5278" gradientUnits="userSpaceOnUse">
<stop offset="0.06" stop-color="#FFF500"/>
<stop offset="0.228896" stop-color="#FFB443"/>
<stop offset="0.402597" stop-color="#FF5E5E"/>
<stop offset="0.595779" stop-color="#DD7DFF"/>
<stop offset="0.820513" stop-color="#39DBFF"/>
<stop offset="0.967532" stop-color="#00FF75"/>
</linearGradient>
<linearGradient id="paint2_linear_221_11528" x1="10.3815" y1="34.5278" x2="251.911" y2="34.5278" gradientUnits="userSpaceOnUse">
<stop offset="0.06" stop-color="#FFF500"/>
<stop offset="0.228896" stop-color="#FFB443"/>
<stop offset="0.402597" stop-color="#FF5E5E"/>
<stop offset="0.595779" stop-color="#DD7DFF"/>
<stop offset="0.820513" stop-color="#39DBFF"/>
<stop offset="0.967532" stop-color="#00FF75"/>
</linearGradient>
<linearGradient id="paint3_linear_221_11528" x1="10.3815" y1="34.5278" x2="251.911" y2="34.5278" gradientUnits="userSpaceOnUse">
<stop offset="0.06" stop-color="#FFF500"/>
<stop offset="0.228896" stop-color="#FFB443"/>
<stop offset="0.402597" stop-color="#FF5E5E"/>
<stop offset="0.595779" stop-color="#DD7DFF"/>
<stop offset="0.820513" stop-color="#39DBFF"/>
<stop offset="0.967532" stop-color="#00FF75"/>
</linearGradient>
<linearGradient id="paint4_linear_221_11528" x1="10.3815" y1="34.5278" x2="251.911" y2="34.5278" gradientUnits="userSpaceOnUse">
<stop offset="0.06" stop-color="#FFF500"/>
<stop offset="0.228896" stop-color="#FFB443"/>
<stop offset="0.402597" stop-color="#FF5E5E"/>
<stop offset="0.595779" stop-color="#DD7DFF"/>
<stop offset="0.820513" stop-color="#39DBFF"/>
<stop offset="0.967532" stop-color="#00FF75"/>
</linearGradient>
</defs>
	</symbol>
	<use href="#logo-symbol-wordmark"></use>
</svg>
